<mxfile host="app.diagrams.net" modified="2024-05-26T05:18:13.915Z" agent="Mozilla/5.0 (Macintosh; Intel Mac OS X 10_15_7) AppleWebKit/537.36 (KHTML, like Gecko) Chrome/124.0.0.0 Safari/537.36" version="24.2.0" etag="a3hI7Xv7fcJ1QJ23S0FU" type="github">
  <diagram name="Page-1" id="gfVpHqE3XM1QWfpt_zMO">
    <mxGraphModel>
      <root>
        <mxCell id="0" />
        <mxCell id="1" parent="0" />
      </root>
    </mxGraphModel>
  </diagram>
</mxfile>
